<svg width="56" height="56" viewBox="0 0 56 56" fill="none" xmlns="http://www.w3.org/2000/svg">
<g id="grommet-icons:group">
<path id="Vector" d="M28 30.3334C30.4754 30.3334 32.8494 29.35 34.5997 27.5997C36.35 25.8493 37.3334 23.4754 37.3334 21C37.3334 18.5247 36.35 16.1507 34.5997 14.4004C32.8494 12.65 30.4754 11.6667 28 11.6667C25.5247 11.6667 23.1507 12.65 21.4004 14.4004C19.65 16.1507 18.6667 18.5247 18.6667 21C18.6667 23.4754 19.65 25.8493 21.4004 27.5997C23.1507 29.35 25.5247 30.3334 28 30.3334ZM28 30.3334C24.287 30.3334 20.7261 31.8084 18.1005 34.4339C15.475 37.0594 14 40.6203 14 44.3334V51.3334M28 30.3334C31.7131 30.3334 35.274 31.8084 37.8995 34.4339C40.525 37.0594 42 40.6203 42 44.3334V51.3334M30.3334 11.6667C31.276 7.78402 35.035 4.66669 39.6667 4.66669C44.7347 4.66669 48.9534 8.84335 49 14C48.9534 19.1567 44.7347 23.3334 39.6667 23.3334M39.6667 23.3334H37.3334M39.6667 23.3334C47.3387 23.3334 53.6667 29.6007 53.6667 37.3334V42M25.6667 11.6667C24.724 7.78402 20.965 4.66669 16.3334 4.66669C11.2654 4.66669 7.04671 8.84335 7.00004 14C7.04671 19.1567 11.2654 23.3334 16.3334 23.3334M16.3334 23.3334H18.6667M16.3334 23.3334C8.66137 23.3334 2.33337 29.6007 2.33337 37.3334V42" stroke="black" stroke-width="2"/>
</g>
</svg>
