<svg width="185" height="49" viewBox="0 0 185 49" fill="none" xmlns="http://www.w3.org/2000/svg">
<g clip-path="url(#clip0_35_810)">
<mask id="mask0_35_810" style="mask-type:luminance" maskUnits="userSpaceOnUse" x="0" y="1" width="49" height="48">
<path d="M48.002 1H0V49H48.002V1Z" fill="white"/>
</mask>
<g mask="url(#mask0_35_810)">
<path fill-rule="evenodd" clip-rule="evenodd" d="M12.0005 1H48.002V13V37L36.0015 49V13H0L12.0005 1ZM0 40.6161V25H15.6167L0 40.6161ZM24.001 49H8.58701L24.001 33.5867V49Z" fill="white"/>
</g>
</g>
<path d="M70.5939 16.0081H64.03L62.7977 20H57.9752L64.9142 0.844247H69.7366L76.6487 20H71.8263L70.5939 16.0081ZM65.1285 12.3377H69.5223L67.3522 5.26481H67.2986L65.1285 12.3377ZM78.0222 0.844247H82.8446V20H78.0222V0.844247Z" fill="white"/>
<path d="M64.1372 34.6866H71.8263V38.6249H64.1372V45.6978H59.3148V26.5421H73.5677V30.4804H64.1372V34.6866ZM83.6153 46.1265C77.5337 46.1265 74.1312 41.8935 74.1312 36.1065C74.1312 30.3464 77.5337 26.1134 83.6153 26.1134C89.6433 26.1134 93.0994 30.3464 93.0994 36.1065C93.0994 41.8935 89.6433 46.1265 83.6153 46.1265ZM83.6153 42.1882C87.0982 42.1882 88.277 39.4555 88.277 36.1065C88.277 32.7844 87.0982 30.0517 83.6153 30.0517C80.1056 30.0517 78.9536 32.7844 78.9536 36.1065C78.9536 39.4555 80.1056 42.1882 83.6153 42.1882ZM94.9493 45.6978V26.5421H103.978C108.238 26.5421 110.81 28.4978 110.81 32.1146C110.81 34.6598 109.309 36.2673 106.925 36.8031V36.8567C111.721 37.6872 109.979 45.1084 111.078 45.4299V45.6978H106.068C105.13 44.8941 106.871 39.0268 102.772 39.0268H99.7717V45.6978H94.9493ZM99.7717 30.4804V35.0885H103.04C104.969 35.0885 105.987 34.3919 105.987 32.7844C105.987 31.1769 104.969 30.4804 103.04 30.4804H99.7717ZM117.508 45.6978V30.4804H111.935V26.5421H127.876V30.4804H122.33V45.6978H117.508ZM145.529 38.7857C145.529 43.5545 143.305 46.1265 137.518 46.1265C131.732 46.1265 129.508 43.5545 129.508 38.7857V26.5421H134.33V38.7857C134.33 41.2773 135.402 42.1882 137.518 42.1882C139.635 42.1882 140.707 41.2773 140.707 38.7857V26.5421H145.529V38.7857ZM148.009 45.6978V26.5421H152.831L159.529 37.9283H159.582V26.5421H164.405V45.6978H159.582L152.885 34.3115H152.831V45.6978H148.009ZM178.047 41.7059H171.483L170.25 45.6978H165.428L172.367 26.5421H177.189L184.102 45.6978H179.279L178.047 41.7059ZM172.581 38.0355H176.975L174.805 30.9626H174.751L172.581 38.0355Z" fill="white"/>
<defs>
<clipPath id="clip0_35_810">
<rect width="48.002" height="48" fill="white" transform="translate(0 1)"/>
</clipPath>
</defs>
</svg>
