<svg width="94" height="17" viewBox="0 0 94 17" fill="none" xmlns="http://www.w3.org/2000/svg">
<g clip-path="url(#clip0_35_767)">
<path d="M9.00053 13.686L9.25877 13.8422L13.4088 16.3522L13.4089 16.3523C13.7885 16.582 14.2533 16.2445 14.153 15.8133L13.0531 11.0935L12.9846 10.7997L13.2126 10.6021L16.8826 7.42212L16.8828 7.42197C17.2195 7.13047 17.0353 6.58302 16.6004 6.54843L16.5977 6.54822L11.7677 6.13821L11.4673 6.11271L11.3496 5.83509L9.45964 1.37509L9.45898 1.37352C9.29051 0.97216 8.70951 0.97216 8.54104 1.37352L8.54023 1.37546L6.65022 5.82546L6.53246 6.10273L6.2323 6.12821L1.4023 6.53821L1.39966 6.53843L1.39966 6.53843C0.964747 6.57302 0.780531 7.12047 1.11726 7.41197L1.11744 7.41212L4.78744 10.5921L5.01543 10.7897L4.94696 11.0835L3.84702 15.8033L9.00053 13.686ZM9.00053 13.686L8.74201 13.8417M9.00053 13.686L8.74201 13.8417M8.74201 13.8417L4.592 16.3417L4.59111 16.3422M8.74201 13.8417L4.59111 16.3422M4.59111 16.3422C4.21156 16.572 3.74689 16.2346 3.84696 15.8035L4.59111 16.3422Z" fill="url(#paint0_linear_35_767)" stroke="url(#paint1_linear_35_767)"/>
</g>
<g clip-path="url(#clip1_35_767)">
<path d="M28 14.27L32.15 16.78C32.91 17.24 33.84 16.56 33.64 15.7L32.54 10.98L36.21 7.8C36.88 7.22 36.52 6.12 35.64 6.05L30.81 5.64L28.92 1.18C28.58 0.37 27.42 0.37 27.08 1.18L25.19 5.63L20.36 6.04C19.48 6.11 19.12 7.21 19.79 7.79L23.46 10.97L22.36 15.69C22.16 16.55 23.09 17.23 23.85 16.77L28 14.27Z" fill="url(#paint2_linear_35_767)"/>
</g>
<g clip-path="url(#clip2_35_767)">
<path d="M47 14.27L51.15 16.78C51.91 17.24 52.84 16.56 52.64 15.7L51.54 10.98L55.21 7.8C55.88 7.22 55.52 6.12 54.64 6.05L49.81 5.64L47.92 1.18C47.58 0.37 46.42 0.37 46.08 1.18L44.19 5.63L39.36 6.04C38.48 6.11 38.12 7.21 38.79 7.79L42.46 10.97L41.36 15.69C41.16 16.55 42.09 17.23 42.85 16.77L47 14.27Z" fill="url(#paint3_linear_35_767)"/>
</g>
<g clip-path="url(#clip3_35_767)">
<path d="M66 14.27L70.15 16.78C70.91 17.24 71.84 16.56 71.64 15.7L70.54 10.98L74.21 7.8C74.88 7.22 74.52 6.12 73.64 6.05L68.81 5.64L66.92 1.18C66.58 0.37 65.42 0.37 65.08 1.18L63.19 5.63L58.36 6.04C57.48 6.11 57.12 7.21 57.79 7.79L61.46 10.97L60.36 15.69C60.16 16.55 61.09 17.23 61.85 16.77L66 14.27Z" fill="url(#paint4_linear_35_767)"/>
</g>
<g clip-path="url(#clip4_35_767)">
<path d="M85.0005 13.686L85.2588 13.8422L89.4088 16.3522L89.4089 16.3523C89.7885 16.582 90.2533 16.2445 90.153 15.8133L89.0531 11.0935L88.9846 10.7997L89.2126 10.6021L92.8826 7.42212L92.8828 7.42197C93.2195 7.13047 93.0353 6.58302 92.6004 6.54843L92.5977 6.54822L87.7677 6.13821L87.4673 6.11271L87.3496 5.83509L85.4596 1.37509L85.459 1.37352C85.2905 0.97216 84.7095 0.97216 84.541 1.37352L84.5402 1.37546L82.6502 5.82546L82.5325 6.10273L82.2323 6.12821L77.4023 6.53821L77.3997 6.53843L77.3997 6.53843C76.9647 6.57302 76.7805 7.12047 77.1173 7.41197L77.1174 7.41212L80.7874 10.5921L81.0154 10.7897L80.947 11.0835L79.847 15.8033L85.0005 13.686ZM85.0005 13.686L84.742 13.8417M85.0005 13.686L84.742 13.8417M84.742 13.8417L80.592 16.3417L80.5911 16.3422M84.742 13.8417L80.5911 16.3422M80.5911 16.3422C80.2116 16.572 79.7469 16.2346 79.847 15.8035L80.5911 16.3422Z" fill="url(#paint5_linear_35_767)" stroke="url(#paint6_linear_35_767)"/>
</g>
<defs>
<linearGradient id="paint0_linear_35_767" x1="-0.412641" y1="-0.32707" x2="16.7397" y2="17.7057" gradientUnits="userSpaceOnUse">
<stop stop-color="white"/>
<stop offset="0.322949" stop-color="#FFD500"/>
<stop offset="0.65108" stop-color="#FFC700"/>
<stop offset="1" stop-color="#D3A500" stop-opacity="0.91"/>
</linearGradient>
<linearGradient id="paint1_linear_35_767" x1="-0.412641" y1="-0.32707" x2="16.7397" y2="17.7057" gradientUnits="userSpaceOnUse">
<stop stop-color="white"/>
<stop offset="0.322949" stop-color="#FFD500"/>
<stop offset="0.65108" stop-color="#FFC700"/>
<stop offset="1" stop-color="#D3A500" stop-opacity="0.91"/>
</linearGradient>
<linearGradient id="paint2_linear_35_767" x1="18.5874" y1="-0.32707" x2="35.7397" y2="17.7057" gradientUnits="userSpaceOnUse">
<stop stop-color="white"/>
<stop offset="0.322949" stop-color="#FFD500"/>
<stop offset="0.65108" stop-color="#FFC700"/>
<stop offset="1" stop-color="#D3A500" stop-opacity="0.91"/>
</linearGradient>
<linearGradient id="paint3_linear_35_767" x1="37.5874" y1="-0.32707" x2="54.7397" y2="17.7057" gradientUnits="userSpaceOnUse">
<stop stop-color="white"/>
<stop offset="0.322949" stop-color="#FFD500"/>
<stop offset="0.65108" stop-color="#FFC700"/>
<stop offset="1" stop-color="#D3A500" stop-opacity="0.91"/>
</linearGradient>
<linearGradient id="paint4_linear_35_767" x1="56.5874" y1="-0.32707" x2="73.7397" y2="17.7057" gradientUnits="userSpaceOnUse">
<stop stop-color="white"/>
<stop offset="0.322949" stop-color="#FFD500"/>
<stop offset="0.65108" stop-color="#FFC700"/>
<stop offset="1" stop-color="#D3A500" stop-opacity="0.91"/>
</linearGradient>
<linearGradient id="paint5_linear_35_767" x1="87" y1="11" x2="74.004" y2="10.911" gradientUnits="userSpaceOnUse">
<stop stop-color="white"/>
<stop offset="0.322949" stop-color="#FFD500"/>
<stop offset="0.65108" stop-color="#FFC700"/>
<stop offset="1" stop-color="#D3A500" stop-opacity="0.91"/>
</linearGradient>
<linearGradient id="paint6_linear_35_767" x1="75.5874" y1="-0.32707" x2="92.7397" y2="17.7057" gradientUnits="userSpaceOnUse">
<stop stop-color="white"/>
<stop offset="0.322949" stop-color="#FFD500"/>
<stop offset="0.65108" stop-color="#FFC700"/>
<stop offset="1" stop-color="#D3A500" stop-opacity="0.91"/>
</linearGradient>
<clipPath id="clip0_35_767">
<rect width="18" height="17" fill="white"/>
</clipPath>
<clipPath id="clip1_35_767">
<rect width="18" height="17" fill="white" transform="translate(19)"/>
</clipPath>
<clipPath id="clip2_35_767">
<rect width="18" height="17" fill="white" transform="translate(38)"/>
</clipPath>
<clipPath id="clip3_35_767">
<rect width="18" height="17" fill="white" transform="translate(57)"/>
</clipPath>
<clipPath id="clip4_35_767">
<rect width="18" height="17" fill="white" transform="translate(76)"/>
</clipPath>
</defs>
</svg>
